# xmcd
#
# Track frame offsets: 
#        150
#        16272
#        33262
#        49413
#        67232
#        85711
#        102755
#        117445
#        136095
#        153420
#
# Disc length: 2244 seconds
#
# Revision: 0
# Processed by: cddbd v1.5.2PL0 Copyright (c) Steve Scherf et al.
# Submitted via: ExactAudioCopy v1.0b1
#
DISCID=7d08c20a
DTITLE=Nauta - Al Natural
DYEAR=2011
DGENRE=Latin Pop
TTITLE0=Sabes que me tienes
TTITLE1=Me Sobra
TTITLE2=Al Natural [Con PIPO Ramírez]
TTITLE3=Dueña de la Luna
TTITLE4=Cierto
TTITLE5=Ladrona
TTITLE6=Muchos Peces
TTITLE7=Donde quiera que estés
TTITLE8=Lágrimas de Ayer
TTITLE9=Triángulo
EXTD=
EXTT0=
EXTT1=
EXTT2=
EXTT3=
EXTT4=
EXTT5=
EXTT6=
EXTT7=
EXTT8=
EXTT9=
PLAYORDER=
